<mxfile host="app.diagrams.net" modified="2024-03-24T22:38:35.122Z" agent="Mozilla/5.0 (Macintosh; Intel Mac OS X 10_15_7) AppleWebKit/537.36 (KHTML, like Gecko) Chrome/123.0.0.0 Safari/537.36" etag="wCGhqblrbvqD5uu2M20_" version="24.1.0" type="device">
  <diagram name="Page-1" id="I9FXUaJJ0UOYqSMho_jS">
    <mxGraphModel dx="1026" dy="565" grid="1" gridSize="10" guides="1" tooltips="1" connect="1" arrows="1" fold="1" page="1" pageScale="1" pageWidth="827" pageHeight="1169" background="#1A1A1A" math="0" shadow="0">
      <root>
        <mxCell id="0" />
        <mxCell id="1" parent="0" />
        <mxCell id="FEkYFQKNyLUL1WMUYcKz-2" value="Ord" style="swimlane;fontStyle=0;childLayout=stackLayout;horizontal=1;startSize=26;fillColor=none;horizontalStack=0;resizeParent=1;resizeParentMax=0;resizeLast=0;collapsible=1;marginBottom=0;whiteSpace=wrap;html=1;labelBackgroundColor=none;strokeColor=#BAC8D3;fontColor=#EEEEEE;" parent="1" vertex="1">
          <mxGeometry x="290" y="150" width="140" height="130" as="geometry" />
        </mxCell>
        <mxCell id="FEkYFQKNyLUL1WMUYcKz-3" value="cmp()" style="text;strokeColor=#BAC8D3;fillColor=#09555B;align=left;verticalAlign=top;spacingLeft=4;spacingRight=4;overflow=hidden;rotatable=0;points=[[0,0.5],[1,0.5]];portConstraint=eastwest;whiteSpace=wrap;html=1;labelBackgroundColor=none;fontColor=#EEEEEE;" parent="FEkYFQKNyLUL1WMUYcKz-2" vertex="1">
          <mxGeometry y="26" width="140" height="26" as="geometry" />
        </mxCell>
        <mxCell id="FEkYFQKNyLUL1WMUYcKz-4" value="max()" style="text;strokeColor=none;fillColor=none;align=left;verticalAlign=top;spacingLeft=4;spacingRight=4;overflow=hidden;rotatable=0;points=[[0,0.5],[1,0.5]];portConstraint=eastwest;whiteSpace=wrap;html=1;labelBackgroundColor=none;fontColor=#EEEEEE;" parent="FEkYFQKNyLUL1WMUYcKz-2" vertex="1">
          <mxGeometry y="52" width="140" height="26" as="geometry" />
        </mxCell>
        <mxCell id="FEkYFQKNyLUL1WMUYcKz-6" value="min()" style="text;strokeColor=none;fillColor=none;align=left;verticalAlign=top;spacingLeft=4;spacingRight=4;overflow=hidden;rotatable=0;points=[[0,0.5],[1,0.5]];portConstraint=eastwest;whiteSpace=wrap;html=1;labelBackgroundColor=none;fontColor=#EEEEEE;" parent="FEkYFQKNyLUL1WMUYcKz-2" vertex="1">
          <mxGeometry y="78" width="140" height="26" as="geometry" />
        </mxCell>
        <mxCell id="FEkYFQKNyLUL1WMUYcKz-5" value="clamp()" style="text;strokeColor=none;fillColor=none;align=left;verticalAlign=top;spacingLeft=4;spacingRight=4;overflow=hidden;rotatable=0;points=[[0,0.5],[1,0.5]];portConstraint=eastwest;whiteSpace=wrap;html=1;labelBackgroundColor=none;fontColor=#EEEEEE;" parent="FEkYFQKNyLUL1WMUYcKz-2" vertex="1">
          <mxGeometry y="104" width="140" height="26" as="geometry" />
        </mxCell>
        <mxCell id="FEkYFQKNyLUL1WMUYcKz-7" value="Eq" style="swimlane;fontStyle=0;childLayout=stackLayout;horizontal=1;startSize=26;fillColor=none;horizontalStack=0;resizeParent=1;resizeParentMax=0;resizeLast=0;collapsible=1;marginBottom=0;whiteSpace=wrap;html=1;labelBackgroundColor=none;strokeColor=#BAC8D3;fontColor=#EEEEEE;" parent="1" vertex="1">
          <mxGeometry x="150" y="340" width="140" height="52" as="geometry" />
        </mxCell>
        <mxCell id="FEkYFQKNyLUL1WMUYcKz-11" value="PartialEq" style="swimlane;fontStyle=0;childLayout=stackLayout;horizontal=1;startSize=26;fillColor=none;horizontalStack=0;resizeParent=1;resizeParentMax=0;resizeLast=0;collapsible=1;marginBottom=0;whiteSpace=wrap;html=1;labelBackgroundColor=none;strokeColor=#BAC8D3;fontColor=#EEEEEE;" parent="1" vertex="1">
          <mxGeometry x="280" y="500" width="140" height="78" as="geometry" />
        </mxCell>
        <mxCell id="FEkYFQKNyLUL1WMUYcKz-12" value="eq()" style="text;strokeColor=#BAC8D3;fillColor=#09555B;align=left;verticalAlign=top;spacingLeft=4;spacingRight=4;overflow=hidden;rotatable=0;points=[[0,0.5],[1,0.5]];portConstraint=eastwest;whiteSpace=wrap;html=1;labelBackgroundColor=none;fontColor=#EEEEEE;" parent="FEkYFQKNyLUL1WMUYcKz-11" vertex="1">
          <mxGeometry y="26" width="140" height="26" as="geometry" />
        </mxCell>
        <mxCell id="FEkYFQKNyLUL1WMUYcKz-13" value="ne()" style="text;strokeColor=none;fillColor=none;align=left;verticalAlign=top;spacingLeft=4;spacingRight=4;overflow=hidden;rotatable=0;points=[[0,0.5],[1,0.5]];portConstraint=eastwest;whiteSpace=wrap;html=1;labelBackgroundColor=none;fontColor=#EEEEEE;" parent="FEkYFQKNyLUL1WMUYcKz-11" vertex="1">
          <mxGeometry y="52" width="140" height="26" as="geometry" />
        </mxCell>
        <mxCell id="FEkYFQKNyLUL1WMUYcKz-14" value="PartialOrd" style="swimlane;fontStyle=0;childLayout=stackLayout;horizontal=1;startSize=26;fillColor=none;horizontalStack=0;resizeParent=1;resizeParentMax=0;resizeLast=0;collapsible=1;marginBottom=0;whiteSpace=wrap;html=1;labelBackgroundColor=none;strokeColor=#BAC8D3;fontColor=#EEEEEE;" parent="1" vertex="1">
          <mxGeometry x="414" y="340" width="140" height="52" as="geometry" />
        </mxCell>
        <mxCell id="FEkYFQKNyLUL1WMUYcKz-15" value="partial_cmp()" style="text;strokeColor=none;fillColor=none;align=left;verticalAlign=top;spacingLeft=4;spacingRight=4;overflow=hidden;rotatable=0;points=[[0,0.5],[1,0.5]];portConstraint=eastwest;whiteSpace=wrap;html=1;labelBackgroundColor=none;fontColor=#EEEEEE;" parent="FEkYFQKNyLUL1WMUYcKz-14" vertex="1">
          <mxGeometry y="26" width="140" height="26" as="geometry" />
        </mxCell>
        <mxCell id="FEkYFQKNyLUL1WMUYcKz-16" value="" style="endArrow=classic;html=1;rounded=0;entryX=0.493;entryY=1.077;entryDx=0;entryDy=0;entryPerimeter=0;exitX=0.5;exitY=0;exitDx=0;exitDy=0;labelBackgroundColor=none;strokeColor=#0B4D6A;fontColor=default;" parent="1" source="FEkYFQKNyLUL1WMUYcKz-7" target="FEkYFQKNyLUL1WMUYcKz-5" edge="1">
          <mxGeometry width="50" height="50" relative="1" as="geometry">
            <mxPoint x="190" y="320" as="sourcePoint" />
            <mxPoint x="240" y="270" as="targetPoint" />
          </mxGeometry>
        </mxCell>
        <mxCell id="FEkYFQKNyLUL1WMUYcKz-17" value="" style="endArrow=classic;html=1;rounded=0;entryX=0.486;entryY=1.077;entryDx=0;entryDy=0;entryPerimeter=0;exitX=0.5;exitY=0;exitDx=0;exitDy=0;labelBackgroundColor=none;strokeColor=#0B4D6A;fontColor=default;" parent="1" source="FEkYFQKNyLUL1WMUYcKz-14" target="FEkYFQKNyLUL1WMUYcKz-5" edge="1">
          <mxGeometry width="50" height="50" relative="1" as="geometry">
            <mxPoint x="180" y="350" as="sourcePoint" />
            <mxPoint x="389" y="292" as="targetPoint" />
          </mxGeometry>
        </mxCell>
        <mxCell id="FEkYFQKNyLUL1WMUYcKz-19" value="" style="endArrow=classic;html=1;rounded=0;entryX=0.5;entryY=1;entryDx=0;entryDy=0;exitX=0.5;exitY=0;exitDx=0;exitDy=0;labelBackgroundColor=none;strokeColor=#0B4D6A;fontColor=default;" parent="1" source="FEkYFQKNyLUL1WMUYcKz-11" target="FEkYFQKNyLUL1WMUYcKz-7" edge="1">
          <mxGeometry width="50" height="50" relative="1" as="geometry">
            <mxPoint x="180" y="350" as="sourcePoint" />
            <mxPoint x="369" y="292" as="targetPoint" />
          </mxGeometry>
        </mxCell>
        <mxCell id="FEkYFQKNyLUL1WMUYcKz-20" value="" style="endArrow=classic;html=1;rounded=0;entryX=0.493;entryY=1.077;entryDx=0;entryDy=0;exitX=0.5;exitY=0;exitDx=0;exitDy=0;entryPerimeter=0;labelBackgroundColor=none;strokeColor=#0B4D6A;fontColor=default;" parent="1" source="FEkYFQKNyLUL1WMUYcKz-11" target="FEkYFQKNyLUL1WMUYcKz-15" edge="1">
          <mxGeometry width="50" height="50" relative="1" as="geometry">
            <mxPoint x="180" y="490" as="sourcePoint" />
            <mxPoint x="180" y="402" as="targetPoint" />
          </mxGeometry>
        </mxCell>
      </root>
    </mxGraphModel>
  </diagram>
</mxfile>
